HIERARCHY
ROOT hip
{
  OFFSET 0 0 0
  CHANNELS 6 Xposition Yposition Zposition Zrotation Yrotation Xrotation
  JOINT abdomen
  {
    OFFSET 0 20.6881 -0.73152
    CHANNELS 3 Zrotation Xrotation Yrotation
    JOINT chest
    {
      OFFSET 0 11.7043 -0.48768
      CHANNELS 3 Zrotation Xrotation Yrotation
      JOINT neck
      {
        OFFSET 0 22.1894 -2.19456
        CHANNELS 3 Zrotation Xrotation Yrotation
        JOINT head
        {
          OFFSET -0.24384 7.07133 1.2192
          CHANNELS 3 Zrotation Xrotation Yrotation
          JOINT leftEye
          {
            OFFSET 4.14528 8.04674 8.04672
            CHANNELS 3 Zrotation Xrotation Yrotation
            End Site
            {
              OFFSET 1 0 0
            }
          }
          JOINT rightEye
          {
            OFFSET -3.6576 8.04674 8.04672
            CHANNELS 3 Zrotation Xrotation Yrotation
            End Site
            {
              OFFSET 1 0 0
            }
          }
        }
      }
      JOINT rCollar
      {
        OFFSET -2.68224 19.2634 -4.8768
        CHANNELS 3 Zrotation Xrotation Yrotation
        JOINT rShldr
        {
          OFFSET -8.77824 -1.95073 1.46304
          CHANNELS 3 Zrotation Xrotation Yrotation
          JOINT rForeArm
          {
            OFFSET -28.1742 -1.7115 0.48768
            CHANNELS 3 Zrotation Xrotation Yrotation
            JOINT rHand
            {
              OFFSET -22.5879 0.773209 7.07136
              CHANNELS 3 Zrotation Xrotation Yrotation
              JOINT rThumb1
              {
                OFFSET -1.2192 -0.487915 3.41376
                CHANNELS 3 Zrotation Xrotation Yrotation
                JOINT rThumb2
                {
                  OFFSET -3.37035 -0.52449 3.41376
                  CHANNELS 3 Zrotation Xrotation Yrotation
                  End Site
                  {
                    OFFSET -1.78271 -1.18214 1.43049
                  }
                }
              }
              JOINT rIndex1
              {
                OFFSET -7.75947 0.938293 5.60832
                CHANNELS 3 Zrotation Xrotation Yrotation
                JOINT rIndex2
                {
                  OFFSET -2.54057 -0.884171 1.56538
                  CHANNELS 3 Zrotation Xrotation Yrotation
                  End Site
                  {
                    OFFSET -1.62519 -0.234802 1.16502
                  }
                }
              }
              JOINT rMid1
              {
                OFFSET -8.24714 1.18213 3.41376
                CHANNELS 3 Zrotation Xrotation Yrotation
                JOINT rMid2
                {
                  OFFSET -3.10165 -0.590103 1.0647
                  CHANNELS 3 Zrotation Xrotation Yrotation
                  End Site
                  {
                    OFFSET -2.48547 -0.328903 0.83742
                  }
                }
              }
              JOINT rRing1
              {
                OFFSET -8.82822 0.546677 1.51678
                CHANNELS 3 Zrotation Xrotation Yrotation
                JOINT rRing2
                {
                  OFFSET -2.60934 -0.819778 -0.0198488
                  CHANNELS 3 Zrotation Xrotation Yrotation
                  End Site
                  {
                    OFFSET -2.33842 -0.294052 0.168128
                  }
                }
              }
              JOINT rPinky1
              {
                OFFSET -8.27202 -0.0477905 -0.4584
                CHANNELS 3 Zrotation Xrotation Yrotation
                JOINT rPinky2
                {
                  OFFSET -1.82734 -0.647385 -0.700984
                  CHANNELS 3 Zrotation Xrotation Yrotation
                  End Site
                  {
                    OFFSET -1.69225 -0.51767 -0.607171
                  }
                }
              }
            }
          }
        }
      }
      JOINT lCollar
      {
        OFFSET 2.68224 19.2634 -4.8768
        CHANNELS 3 Zrotation Xrotation Yrotation
        JOINT lShldr
        {
          OFFSET 8.77824 -1.95073 1.46304
          CHANNELS 3 Zrotation Xrotation Yrotation
          JOINT lForeArm
          {
            OFFSET 28.1742 -1.7115 0.48768
            CHANNELS 3 Zrotation Xrotation Yrotation
            JOINT lHand
            {
              OFFSET 22.5879 0.773209 7.07136
              CHANNELS 3 Zrotation Xrotation Yrotation
              JOINT lThumb1
              {
                OFFSET 1.2192 -0.487915 3.41376
                CHANNELS 3 Zrotation Xrotation Yrotation
                JOINT lThumb2
                {
                  OFFSET 3.37035 -0.52449 3.41376
                  CHANNELS 3 Zrotation Xrotation Yrotation
                  End Site
                  {
                    OFFSET 1.78271 -1.18214 1.43049
                  }
                }
              }
              JOINT lIndex1
              {
                OFFSET 7.75947 0.938293 5.60832
                CHANNELS 3 Zrotation Xrotation Yrotation
                JOINT lIndex2
                {
                  OFFSET 2.54057 -0.884171 1.56538
                  CHANNELS 3 Zrotation Xrotation Yrotation
                  End Site
                  {
                    OFFSET 1.62519 -0.234802 1.16502
                  }
                }
              }
              JOINT lMid1
              {
                OFFSET 8.24714 1.18213 3.41376
                CHANNELS 3 Zrotation Xrotation Yrotation
                JOINT lMid2
                {
                  OFFSET 3.10165 -0.590103 1.0647
                  CHANNELS 3 Zrotation Xrotation Yrotation
                  End Site
                  {
                    OFFSET 2.48547 -0.328903 0.83742
                  }
                }
              }
              JOINT lRing1
              {
                OFFSET 8.82822 0.546677 1.51678
                CHANNELS 3 Zrotation Xrotation Yrotation
                JOINT lRing2
                {
                  OFFSET 2.60934 -0.819778 -0.0198488
                  CHANNELS 3 Zrotation Xrotation Yrotation
                  End Site
                  {
                    OFFSET 2.33842 -0.294052 0.168128
                  }
                }
              }
              JOINT lPinky1
              {
                OFFSET 8.27202 -0.0477905 -0.4584
                CHANNELS 3 Zrotation Xrotation Yrotation
                JOINT lPinky2
                {
                  OFFSET 1.82734 -0.647385 -0.700984
                  CHANNELS 3 Zrotation Xrotation Yrotation
                  End Site
                  {
                    OFFSET 1.69225 -0.51767 -0.607171
                  }
                }
              }
            }
          }
        }
      }
    }
  }
  JOINT rButtock
  {
    OFFSET -8.77824 4.35084 1.2192
    CHANNELS 3 Zrotation Xrotation Yrotation
    JOINT rThigh
    {
      OFFSET 0 -1.70687 -2.19456
      CHANNELS 3 Zrotation Xrotation Yrotation
      JOINT rShin
      {
        OFFSET 0 -36.8199 0.73152
        CHANNELS 3 Zrotation Xrotation Yrotation
        JOINT rFoot
        {
          OFFSET 0.73152 -45.1104 -5.12064
          CHANNELS 3 Zrotation Xrotation Yrotation
          End Site
          {
            OFFSET -1.1221 -3.69964 12.103
          }
        }
      }
    }
  }
  JOINT lButtock
  {
    OFFSET 8.77824 4.35084 1.2192
    CHANNELS 3 Zrotation Xrotation Yrotation
    JOINT lThigh
    {
      OFFSET 0 -1.70687 -2.19456
      CHANNELS 3 Zrotation Xrotation Yrotation
      JOINT lShin
      {
        OFFSET 0 -36.8199 0.73152
        CHANNELS 3 Zrotation Xrotation Yrotation
        JOINT lFoot
        {
          OFFSET -0.73152 -45.1104 -5.12064
          CHANNELS 3 Zrotation Xrotation Yrotation
          End Site
          {
            OFFSET 1.1221 -3.69964 12.103
          }
        }
      }
    }
  }
}
MOTION
Frames:	4
Frame Time:	0.03333
59.50324409239035 66.0629625203865 6.692539593937117 -24.957109451293945 54.33841323852539 -21.142919540405273 11.870148658752441 14.767167091369629 12.613565444946289 0.5349855422973633 -8.249982833862305 3.6738977432250977 2.2729029655456543 12.771758079528809 13.009454727172852 -2.972722053527832 -21.54623031616211 24.364255905151367 -0.17912738025188446 -0.08100097626447678 0.1655079424381256 0.021099736914038658 -0.10266473144292831 0.11534671485424042 -0.14202924072742462 0.18840138614177704 -0.09753090888261795 97.39877319335938 34.50802993774414 -47.66123580932617 -22.503095626831055 -50.81166458129883 108.04615020751953 -157.5035400390625 -56.550323486328125 -167.87648010253906 -0.02764848805963993 -0.0996478945016861 0.046293556690216064 -0.037117671221494675 0.0037181656807661057 0.11530620604753494 -0.009844182059168816 0.017410874366760254 0.2668845057487488 7.583838939666748 5.458850860595703 0.4886922836303711 -0.060572605580091476 -0.08977628499269485 -0.09626488387584686 2.994575262069702 0.9681937098503113 0.02296687290072441 -0.005230666138231754 -0.056287895888090134 0.17939920723438263 10.268025398254395 0.6484460234642029 0.12483926117420197 0.09137793630361557 -0.11019127815961838 -0.00353442644700408 2.1503725051879883 -0.7827200293540955 -0.038628820329904556 0.0383807048201561 0.004099082667380571 -0.0862027257680893 -77.98100280761719 -10.874298095703125 -89.58500671386719 4.951197147369385 -1.4776428937911987 -8.817890167236328 42.5125617980957 79.69205474853516 -49.866493225097656 0.10470432788133621 -0.08253858238458633 0.1846732199192047 -0.2694322466850281 0.08031424880027771 -0.04700663685798645 -0.014499353244900703 0.001467972993850708 0.053200624883174896 -7.52052640914917 5.491675853729248 -0.4026165306568146 0.012538283132016659 0.14900335669517517 -0.10859687626361847 -2.982867479324341 0.7688742876052856 -0.32864028215408325 0.09116453677415848 0.13611938059329987 0.06250783801078796 -10.398361206054688 0.8013136982917786 0.0020928436424583197 0.069281667470932 0.10014533996582031 0.0006600885535590351 -1.929450273513794 -0.6849528551101685 0.27212464809417725 0.028177887201309204 0.047672078013420105 -0.10233727097511292 -1.3529480695724487 -0.5403789281845093 -4.906709671020508 -0.34091717004776 45.590248107910156 1.5371603965759277 -14.549049377441406 -14.869397163391113 -31.031156539916992 0.08503974974155426 -0.15629009902477264 0.11135991662740707 64.15802001953125 -49.39142608642578 48.77885055541992 2.152688980102539 69.92144775390625 -1.942703366279602 -0.8013274073600769 -1.9303970336914062 -8.144840240478516
59.62867325942164 66.02107297020682 6.8404478740222725 -25.258371353149414 54.50667953491211 -21.172439575195312 12.017205238342285 14.919520378112793 12.818521499633789 0.41582056879997253 -8.238571166992188 3.715764045715332 2.3515429496765137 12.902288436889648 13.370827674865723 -3.2192320823669434 -21.626699447631836 25.02475929260254 -0.18588373064994812 -0.06698374450206757 0.1799277812242508 0.021797088906168938 -0.09117301553487778 0.12309345602989197 -0.15037156641483307 0.1792803555727005 -0.11620239168405533 98.0372543334961 34.622615814208984 -47.86661911010742 -22.591358184814453 -50.73964309692383 107.77458953857422 -155.76101684570312 -60.401100158691406 -165.82521057128906 -0.03040432557463646 -0.11947064846754074 0.044953834265470505 -0.042486920952796936 -0.007296279538422823 0.09317147731781006 -0.038274653255939484 0.02286134473979473 0.2840195894241333 7.583667278289795 5.4648118019104 0.4591810703277588 -0.0418439656496048 -0.0904722660779953 -0.07476691156625748 2.9978601932525635 0.9709281325340271 0.02966909110546112 -0.009630399756133556 -0.06124644726514816 0.1954708993434906 10.263785362243652 0.653355062007904 0.12943266332149506 0.0861995667219162 -0.120511993765831 -0.01753929629921913 2.142742156982422 -0.7667409181594849 -0.05444645136594772 0.03689905256032944 0.00017347883840557188 -0.09731750935316086 -76.98370361328125 -10.616939544677734 -89.85545349121094 5.005853652954102 -1.5586620569229126 -8.86361312866211 40.12067413330078 79.28202056884766 -47.40923309326172 0.11102426052093506 -0.0801037922501564 0.17857447266578674 -0.27720651030540466 0.07300624996423721 -0.045064087957143784 -0.01652318425476551 0.026915593072772026 0.056169573217630386 -7.525478363037109 5.498463153839111 -0.39921000599861145 0.0034169203136116266 0.14869870245456696 -0.11260933429002762 -2.9958760738372803 0.7624163031578064 -0.323542982339859 0.10563161224126816 0.1470918506383896 0.04694607853889465 -10.401174545288086 0.8073475956916809 0.01952272839844227 0.07767189294099808 0.09652502089738846 0.007739633787423372 -1.9325206279754639 -0.711608350276947 0.25204020738601685 0.03797615319490433 0.035102471709251404 -0.10678496956825256 -1.193966031074524 -0.4616281986236572 -5.047749042510986 -0.33353713154792786 45.33018112182617 1.518110990524292 -14.553509712219238 -14.947317123413086 -30.960487365722656 0.09035633504390717 -0.14013949036598206 0.09820247441530228 63.92522048950195 -49.6786003112793 48.3209114074707 2.247736930847168 70.06076049804688 -2.086617946624756 -0.7578153610229492 -2.0622968673706055 -7.842606544494629
59.74199458212776 65.87633443150507 6.989632438986868 -25.42812156677246 54.41830062866211 -20.997438430786133 12.134896278381348 14.994060516357422 13.06594181060791 0.3181833028793335 -8.237196922302246 3.796041250228882 2.4901862144470215 13.101045608520508 13.847426414489746 -3.4399192333221436 -21.728700637817383 25.88949966430664 -0.18051362037658691 -0.059061285108327866 0.1752336621284485 0.0218389630317688 -0.07582049816846848 0.1270841509103775 -0.15544414520263672 0.16690193116664886 -0.12111096829175949 98.88797760009766 34.84131622314453 -48.34785842895508 -22.663150787353516 -50.69294738769531 107.53083038330078 -153.4653778076172 -64.2394790649414 -163.22750854492188 -0.03571569547057152 -0.1398947387933731 0.04312167689204216 -0.04530875012278557 -0.018148278817534447 0.08380579203367233 -0.06237296387553215 0.032334648072719574 0.2933439612388611 7.594122886657715 5.472336292266846 0.4364643394947052 -0.04484015703201294 -0.07977495342493057 -0.05422471836209297 3.000448703765869 0.9626681804656982 0.04226497560739517 -0.014890887774527073 -0.05737421289086342 0.19212232530117035 10.257275581359863 0.676901638507843 0.1434142142534256 0.07327441871166229 -0.1436234712600708 -0.032997675240039825 2.1257266998291016 -0.7558510899543762 -0.08886613696813583 0.0454600527882576 -0.00181115313898772 -0.09468358010053635 -76.2131576538086 -10.573043823242188 -90.07843017578125 5.051576137542725 -1.6682803630828857 -8.823551177978516 38.00172805786133 78.88201141357422 -45.27460479736328 0.10252979397773743 -0.07178865373134613 0.14210329949855804 -0.29498496651649475 0.04898177459836006 -0.033165525645017624 -0.014119290746748447 0.03652837127447128 0.051529716700315475 -7.542084217071533 5.519168376922607 -0.4088180661201477 -0.002675621537491679 0.1361483931541443 -0.12577110528945923 -3.0124351978302 0.7576513290405273 -0.3263342082500458 0.11541824042797089 0.15499195456504822 0.035339925438165665 -10.397842407226562 0.8130204677581787 0.02976817451417446 0.08939038962125778 0.06253363192081451 0.024541165679693222 -1.946236252784729 -0.7464811205863953 0.24610207974910736 0.020817149430513382 0.02390979789197445 -0.10814623534679413 -1.2536388635635376 -0.3484199047088623 -5.215114116668701 -0.321358859539032 45.1949462890625 1.5581772327423096 -14.584839820861816 -15.220749855041504 -31.06475067138672 0.08428480476140976 -0.1295548677444458 0.07939992845058441 64.19689178466797 -49.89503860473633 48.45472717285156 2.4090585708618164 70.52076721191406 -2.2928245067596436 -0.7433599233627319 -2.183237314224243 -7.587576866149902
59.84883080029951 65.8133942383034 7.139535347753077 -25.379417419433594 54.11076736450195 -20.80605697631836 12.20116901397705 14.994085311889648 13.288818359375 0.2623633146286011 -8.238568305969238 3.889188528060913 2.6250274181365967 13.320698738098145 14.273014068603516 -3.5819103717803955 -21.73870086669922 26.688308715820312 -0.17043356597423553 -0.060189858078956604 0.15750652551651 0.020176133140921593 -0.05690566822886467 0.12900377810001373 -0.1418435275554657 0.15372541546821594 -0.11266186088323593 99.7514877319336 35.206512451171875 -48.85835266113281 -22.76468849182129 -50.53390884399414 107.115478515625 -150.29977416992188 -68.0912857055664 -159.7308807373047 -0.046133942902088165 -0.16668789088726044 0.02936944179236889 -0.04267638549208641 -0.03900228440761566 0.09239189326763153 -0.08242983371019363 0.04215110093355179 0.2861247658729553 7.616639614105225 5.482308387756348 0.41973841190338135 -0.07422389835119247 -0.04603734239935875 -0.03484554961323738 3.00644850730896 0.9503616094589233 0.052662141621112823 -0.01899239979684353 -0.04546613618731499 0.16991367936134338 10.247783660888672 0.7052702307701111 0.15614956617355347 0.058203909546136856 -0.15604117512702942 -0.042822595685720444 2.106443405151367 -0.7514590620994568 -0.131585955619812 0.06236778944730759 -0.0021012236829847097 -0.08251021802425385 -75.7060317993164 -10.632245063781738 -90.11582946777344 5.117745876312256 -1.7303746938705444 -8.826828002929688 36.4642219543457 78.57398986816406 -43.735496520996094 0.0851668044924736 -0.06454157084226608 0.08855198323726654 -0.32394737005233765 0.009393411688506603 -0.01027159858494997 -0.007275885436683893 0.03346524015069008 0.05125265568494797 -7.563326835632324 5.542518138885498 -0.4218234419822693 -0.003981811460107565 0.12003413587808609 -0.13961079716682434 -3.0304951667785645 0.7557897567749023 -0.3361453115940094 0.12007300555706024 0.15937474370002747 0.02371123433113098 -10.394437789916992 0.8145694732666016 0.03101750649511814 0.09691664576530457 0.020278993993997574 0.03954328969120979 -1.9710452556610107 -0.7832421064376831 0.2464597374200821 -0.009584262035787106 0.01367096696048975 -0.10281887650489807 -1.5249520540237427 -0.24765430390834808 -5.398360252380371 -0.30118328332901 45.18299865722656 1.6371029615402222 -14.637869834899902 -15.647072792053223 -31.23644256591797 0.062020957469940186 -0.1194169670343399 0.05608903616666794 64.72238159179688 -50.0458869934082 48.93388366699219 2.6181535720825195 71.17924499511719 -2.547987222671509 -0.7435631155967712 -2.3405938148498535 -7.357992172241211
